/* XPM */
static char *bitcoin64_xpm[] = {
/* width height num_colors chars_per_pixel */
"    64    64      256            2",
/* colors */
"`` c #04020c",
"`. c #90845b",
"`# c #e2c362",
"`a c #c98532",
"`b c #6c4523",
"`c c #fce677",
"`d c #caa34c",
"`e c #a86226",
"`f c #c4a474",
"`g c #d2c299",
"`h c #eca430",
"`i c #263942",
"`j c #71674c",
"`k c #ecd379",
"`l c #f3e5ce",
"`m c #ecb340",
"`n c #c99447",
"`o c #90632b",
"`p c #b09e64",
"`q c #515349",
"`r c #ac833e",
"`s c #f8c357",
"`t c #dd9538",
"`u c #a4845c",
"`v c #1b1f29",
"`w c #aa742b",
"`x c #f1cd95",
"`y c #f6b441",
"`z c #4e3824",
"`A c #dcb359",
"`B c #fcf4a1",
"`C c #fcf3c3",
"`D c #997439",
"`E c #8e5823",
"`F c #e5a54c",
"`G c #fad463",
"`H c #7f7354",
"`I c #d8a342",
"`J c #f6e59a",
"`K c #36221c",
"`L c #be742b",
"`M c #f4c57a",
"`N c #e2c47f",
"`O c #71532c",
"`P c #efd896",
"`Q c #f6d481",
"`R c #c59554",
"`S c #e8bc76",
"`T c #e8b461",
"`U c #b39350",
"`V c #e09d45",
"`W c #54483c",
"`X c #f4a535",
"`Y c #fbeb9f",
"`Z c #d98828",
"`0 c #262124",
"`1 c #716458",
"`2 c #ece5dc",
"`3 c #a69365",
"`4 c #d6a55e",
"`5 c #f0d8b8",
"`6 c #50605c",
"`7 c #a47844",
"`8 c #c8b37c",
".` c #f4ba5f",
".. c #8d7358",
".# c #6d5d4c",
".a c #916947",
".b c #b98235",
".c c #f8f4ee",
".d c #34484c",
".e c #f9ca59",
".f c #e29c38",
".g c #7c655a",
".h c #e4d494",
".i c #ebcb71",
".j c #a97c31",
".k c #cb9b46",
".l c #fcd99f",
".m c #e7bc66",
".n c #f6dc88",
".o c #b79561",
".p c #a96c2b",
".q c #f2ecc1",
".r c #926b33",
".s c #cb8b35",
".t c #5f554e",
".u c #835320",
".v c #292b2f",
".w c #12151e",
".x c #86857c",
".y c #ecab40",
".z c #f6bb4e",
".A c #60381c",
".B c #44362c",
".C c #e3cd80",
".D c #c4b29c",
".E c #ecc46f",
".F c #eaac4f",
".G c #fbdc6f",
".H c #787470",
".I c #dbac52",
".J c #f9e3b2",
".K c #f6cd77",
".L c #b78547",
".M c #ec9d33",
".N c #c8a465",
".O c #fbebaf",
".P c #736b58",
".Q c #d4943a",
".R c #f7c567",
".S c #b4742c",
".T c #c17a2b",
".U c #c89c59",
".V c #60482e",
".W c #917a59",
".X c #815a29",
".Y c #e4c59c",
".Z c #372d28",
".0 c #f3de96",
".1 c #f5ac3d",
".2 c #d8ac61",
".3 c #d7b477",
".4 c #fcfefc",
".5 c #9c8c64",
".6 c #f9e48c",
".7 c #bcb6a4",
".8 c #fcfbc1",
"#` c #9c7b4a",
"#. c #b0a898",
"## c #e1d5c2",
"#a c #908e84",
"#b c #102d40",
"#c c #814e24",
"#d c #d8ac74",
"#e c #816339",
"#f c #615f51",
"#g c #1d1517",
"#h c #4c321c",
"#i c #bca779",
"#j c #e0ceb4",
"#k c #344146",
"#l c #ccbc98",
"#m c #b66d29",
"#n c #080c1b",
"#o c #d4ceac",
"#p c #523f28",
"#q c #fcfba7",
"#r c #f3ece4",
"#s c #44403a",
"#t c #817c71",
"#u c #9c8254",
"#v c #d49d56",
"#w c #704c29",
"#x c #e9bd54",
"#y c #ac8b4f",
"#z c #daba64",
"#A c #847b58",
"#B c #ccbe8c",
"#C c #e4dcce",
"#D c #ecd586",
"#E c #9c581c",
"#F c #bc944b",
"#G c #aa9578",
"#H c #44484b",
"#I c #263040",
"#J c #604c40",
"#K c #c9ac79",
"#L c #7f6c5a",
"#M c #5f4022",
"#N c #b88c4d",
"#O c #c9ab64",
"#P c #e0cea4",
"#Q c #fce5c0",
"#R c #bc9f68",
"#S c #ec9624",
"#T c #fcedc5",
"#U c #9c6b2f",
"#V c #f4ae4c",
"#W c #cc7c29",
"#X c #9c7c56",
"#Y c #b46624",
"#Z c #f4be74",
"#0 c #a78c60",
"#1 c #d7bb77",
"#2 c #d1c5b1",
"#3 c #34393f",
"#4 c #9c662a",
"#5 c #f8f4b0",
"#6 c #97744a",
"#7 c #ecc47f",
"#8 c #6f5e5f",
"a` c #b47b33",
"a. c #d49a49",
"a# c #c68c45",
"aa c #eccd7f",
"ab c #c49e70",
"ac c #fceedc",
"ad c #efd295",
"ae c #4f4e4f",
"af c #d98e35",
"ag c #efdebf",
"ah c #e4daac",
"ai c #ba9a61",
"aj c #605a55",
"ak c #383231",
"al c #949694",
"am c #646658",
"an c #221a1d",
"ao c #bcaa94",
"ap c #1c2d3f",
"aq c #140e1c",
"ar c #fcf5da",
"as c #fcfad9",
"at c #9c8369",
"au c #fcde9f",
"av c #ccaa54",
"aw c #1c2634",
"ax c #8f5e23",
"ay c #2a2627",
"az c #a97e47",
"aA c #f5be60",
"aB c #906e4e",
"aC c #bc8a3c",
"aD c #2c3234",
"aE c #644e34",
"aF c #e3c36f",
"aG c #e8a442",
"aH c #eab351",
"aI c #525458",
"aJ c #a7834d",
"aK c #ecceac",
"aL c #f5b551",
"aM c #dbb369",
"aN c #f9d373",
"aO c #daa44f",
"aP c #f1d9a7",
"aQ c #dc9c58",
"aR c #4c4850",
"aS c #d78a37",
"aT c #ecdacc",
"aU c #f8cc6a",
"aV c #e0d2ac",
"aW c #b49571",
"aX c #f4edd4",
"aY c #7e542e",
"aZ c #e9ad5c",
"a0 c #f5cd87",
"a1 c #6f6b67",
"a2 c #bc7c38",
"a3 c #8e7b65",
"a4 c #7c5c38",
"a5 c #645f62",
"a6 c #d4beac",
"a7 c #4e4136",
"a8 c #3e4246",
/* pixels */
".4.4.4.4.4.4.4.4.4.4.4.4.4.4.4.4.4.4.4.4.4.4.4.c`5.3`Ra#`n#d.Y`lacag`x`SaZ.2`S`5#r.4.4.4.4.4.4.4.4.4.4.4.4.4.4.4.4.4.4.4.4.4.4.4",
".4.4.4.4.4.4.4.4.4.4.4.4.4.4.4.4.4.4.4.4.c`g.L#U#4a`a#`I#d`S`S`N`S`S`T`T.FaG.Maf`aa..Y#r.4.4.4.4.4.4.4.4.4.4.4.4.4.4.4.4.4.4.4.4",
".4.4.4.4.4.4.4.4.4.4.4.4.4.4.4.4.4.4`2aiax`Eaz.U`TaF.EaF.m`T`A`TaF.maF.m`AaO`V.faf`a`La`.UaT.4.4.4.4.4.4.4.4.4.4.4.4.4.4.4.4.4.4",
".4.4.4.4.4.4.4.4.4.4.4.4.4.4.4.4`2#NaY`E.o`S`Qaa.EaF.m`T`TaM`A.m`k#D`k`Qaa`kaa`TaOaOa.`a#m`e`R`l.4.4.4.4.4.4.4.4.4.4.4.4.4.4.4.4",
".4.4.4.4.4.4.4.4.4.4.4.4.4.4#r.o`O`oaiaa.n.naa.maF.m.m#z`T`A`T.IaF`T.m.m.E.E#D.E#D.i.E`#aM`n.p.p.U#r.4.4.4.4.4.4.4.4.4.4.4.4.4.4",
".4.4.4.4.4.4.4.4.4.4.4.4.4##.X#w.oa0.6.n.0.0`QaF.m.m`T`TaH.F.F.F.y.F`F`I`F`V`V.maF`Q.0#D.n`kaF`n.S.S#j.4.4.4.4.4.4.4.4.4.4.4.4.4",
".4.4.4.4.4.4.4.4.4.4.4.4#i#M.r`S.n.n.0.0`Q#D.m`T.2aQ.Q.Q.s`n.Q.Qa.`V.y.FaLaH.y.IaZ#z`k.n`J#D.n.naFa#`LaM.4.4.4.4.4.4.4.4.4.4.4.4",
".4.4.4.4.4.4.4.4.4.4.caJ.A`r`Q.0.n.0.n`Q`S.I.Q`a`L.p`e#eaY#w.VaEaE`Oa4.r`r.kaHaU.e#x.EaF.n`k`k.n`Y.n`d`a.k.4.4.4.4.4.4.4.4.4.4.4",
".4.4.4.4.4.4.4.4.4.c`D.A#F.n`P.0.n.naF`4.s`L`eaY#w.Bak#I.vap`i#I#Iapapap#I#s.##0`N.n.GaU.i#D.n.6.6#q#5aMaf.kaX.4.4.4.4.4.4.4.4.4",
".4.4.4.4.4.4.4.4#r.r.V.N.nau.n.n#D.2a##m`E`b.B.vawaDa8`q`j#A.W`.`.`.#Aam`q`i#b#b`6al`g.G.G.G`J`J`B#5#5.0.I`t.k#r.4.4.4.4.4.4.4.4",
".4.4.4.4.4.4.4.c#e`baM.6au.n`P.E`n#m#E`bak`vawa8a1`3`8aF`k.G.6`c.6.6.G.K#1`p`.`q#I#baI.5aF.G`c.6#q`Y.h.E.FaG`F`I.c.4.4.4.4.4.4.4",
".4.4.4.4.4.4.4az#M.2.n.0.n.n#za##E#c`z`0`v#H#a#B`Q`J.n`k#D`J`Y`Y`Y`Y.6.n.G.GaNaF`p#L#k#3`1#O`c`c`Jah.EaZ`V.f`F.F`d.4.4.4.4.4.4.4",
".4.4.4.4.4.4`8#M.U.n`J.n.n`Sa`#E#c.Z`v.v#t#o.J.6#DaF#z`#`#.i`J`J.6`J`J.6.KaU.K`GaN`s`p.##kaj`3`c`c`k.y`V.f.f`t.y.I#z.4.4.4.4.4.4",
".4.4.4.4.4ag`baz.n.0.n`PaFa`#E`bay.w#H.7aX`Y#D.C.h.h#D.i.e.i.C`J`J`J`Y`P.KaU.R.R.R.R.K`S#X`q.t`3.G`c#x.f`V.f`V.faH`I#j.4.4.4.4.4",
".4.4.4.4.c.ra4.E.6.n.n#7a2#E#May`v.H###T`J.C`N.C.C.C`J.J.0aNaU`J.6`J.n.E.RaU`Q.KaA.`.z`Q`Q.o`1.t.5.G`caH`t`F.m`F.f#x.kaX.4.4.4.4",
".4.4.4.4#O`b.N.6.0`Paaa##E`b.Z`v#t`2#5`P.C#D.6#DaFaF.0`J`P`J`Q#D`Y`J.E.RaU.R.m.maAaAaL.m`Y.K.I.g#8#0.G.GaG.Fa0.E`t.F`#av.4.4.4.4",
".4.4.4#raY`7.nau.n`Q.U#Y#c.Z`v#taX`B`J`J`J`J.C.C.i`#`k.C`Q.nauad#D.n.K.R.R.R.maAaA.zaL.F`##DaFaOaB.g.o.G.i.f.F#D`T`t`s.I`2.4.4.4",
".4.4.4#R#caM`Qaa.naM`L`E`z`va1.q`Y.O#T`Y`J.i#z#z.i.n`k.EaNaN`Q.l`P.m.R.R.RaA.zaLaL.`.m.K.m`T#D.E.U.g#L.N.GaH`V.Eaa`V`F.iav.4.4.4",
".4.4#r.uaJ.naaaaaaa##Y#M`0a8aV.O.Oaras`C`P.C`Q`Q.0.O`Yau.naNaUaU`Q.laU.RaA.`.Ra0a0a0`Madaa.``S`P.n#N#8..aH`Ga..Faa`T`Z`Gav#C.4.4",
".4.4#O.u`S.6.n#D`4`LaY.v.v#.`Y.O`Cas.4`C.0`k`Q`Q.0.O.O.O.O.J.l.l`Q`Q#Q.J.lada0`M.`aL.F.m`Saa.i`J`Y.E#6a5#X.i#x`t.m`Q`t.F`kav.4.4",
".4.c#Uaz`Q`P`P.E`a`e#p`v.H.J`Y.O.q`Car.q`J.6.naN.6`J`J`J`Y`J`Q.K`Q.J.c.4#Q.`#VaL.FaH#V`F`I.I`P`Y`J.6`4`1`1`n.e`VaG#D`Taf.i`d`l.4",
".4aV.u#d.6`J`Q`4`L.u.v#3`g`Y`J`J.6.O#T`Y`J`J.6.nau`J`J.n#D.C.E.K.l.l.l#Qac.l#ZaH.y.F.y.y.y`F#D`Y`J`Y`QaJ.taB`A#x`t`T.E`t`m#z#1.4",
".4.U#4aa.n`P.i.Q#m`Waw#A`P.0`J`J`J`J`Y`Y`J`J`J`J.6`Y.0.C.m#x.J.J.K.`aA.``MaPa0`x`M.FaGaG.yaG`T`J.n#D.6#d.#aj#N#x.f`F`Q`F.f`##F.c",
".c`w#Na0aF.i`T`aaxak#3`8`k.n`J`J`J`J`Y.J`J`J.6`J`J`J.n`J`Qaua0`TaL.`.`aL.F`M`MaL#Za0.`.FaG.i.n.n`4.I#D`Q#XaI.a`A`I`V.EaZ#S#z`d#C",
"`l#4.2aaaF.E`4#W`O.vamaF.i#D`J`J.6`J`J.q.6`J`J`J`J.6`P.h`x.E.`aA.zaL`TaL.F#V`M`SaG.F`S`MaZ.m`Y#D.f.f`T`Qab.t.t#FaH`t.K.i.f#x.3#o",
"`N.p`SaF`S.maQ.S.Vap#0.i.i.6`J`J`J`J`J.O`Y`J.6`J`Y#5aPa0`saA`saAaAaLaLaLaL.y.F`M#ZaG.MaZ`M#7aa.m`T.R.I`TaM`1aR`D#x.f#x.KaG`TaP`f",
".N.b.EaF.E`T.Q.pa8#3#O.e.i.6`J`J.6`J`J`Y.O`J`J`YaP#P.RaA`T#Z.`.2.2`TaH.2`4.F.F.F`MaZaGaGaG`T`Naa`J`J`T`F`F#6a8a4.2aG.F.naL.FaX#O",
"`n`n.E.m.m.2af#`#3`q#z.i`k`J`J`J`J`J`Y.O`C.q`Y.8.x`W.E#Gae`8#LaI`1.o`4.g`1.P.o.1.m`MaGaGaG.f`Q`C.O`J.n.K.`aJ#H.V.2`maG#x.yaG`l#K",
".s`4.E.m.maO`ta3#I`j`#`G.n`J.6`J.6`Y`JaXasasas.8a1akaF#0`iaW`i#Aa3`.ab#8.5#8.t`4`X`S`TaGaGaG.n`Y#T#5#T.O.6#Fa8a7.U#x.M#S.M`X.Y.N",
"#vaM.m`T.m#vaQatap#AaUaNaN`J`J`J`J`J#T.4.4.4.4.J`j#H.E`p#k#Ka3`1..abab`1`S.oa8`R#V.F`M.FaG.mau`J`Y.4as.O`Y.2a7ak#F.E.M.M.M`h#d.U",
".3`S.maM`Ta.aQ.xap.5`GaNaN`P`J`Y`J`J`C.4.4.4as`J#L#3#1`.#k`f`3#Ra3`1#G`1`f..ak`R`y.M`S`TaG.n`Y`J`Yarar.O`BaMa7ay#N.E`X.M`h`Xa.#N",
"aK#7`TaMaHa.#v.Hap#0.G.naNaN.6`J`J`J`JaX.4.4arau.o#3#H#k.P.N.tata3#LaWaeaj#3`OaZ.FaGaG`S.mau`J`J`Y.q`Y.O`Y#za7an.L.E.y`h.M`h.Q.b",
"#r`x.I`A`A`t.Q`Hap`3.G.naNaN#D`J`J`J`P`Q.l.JaP.R.Rai.P`HaM.``R#X`uaZ#d#u.W#X.2#VaGaGaGaZad`Y`J`Y.O`J`J`Y`B`T.B#g#yaU`h`h`h`X`a.j",
"ar#7.IaZ.Ia.af.Pap`3.naNaN.K.E`P`J`Y.l.R#ZaAa0aa.o.3ai.o.oaL`4`4`S`u.2#v.o`T.LaOaGaG`FaG`x.O.O.q`J`J`J`J#5aM.Z#g#NaU`h`X`h`X.b.j",
".J`S.I`AaZa..Q#Aap`..G`QaN.K.R`#.0.O.KaL.R.RaAadam#Ham#i.g#G#LaW.UaI`uaJ.v.#.t`naLaG`F`T`5.4`C#T`J`J`J.6`B`4`0an.kaU`h`h`h`X.b`w",
"ad`S.m`kaFaf`t#u#b`HaNaN.KaU.RaA`P.O.6.KaNaa.1#Za1apaj.3`Ha3`1aWa3aI`1..ay`0a7aO.1aG`F`T#Q.4as.O`Y`J`J`J`Y.U#g.Z.I.R`h`h`h`Xa`.j",
"a0`T.m.n.E.Q`t`U`i#f.iaNaU.R.RaU`MaF#D#D.0.0.KaAaj#A`1.W.gab#L..aj`1#s#saj#J.v`4.1`VaG`T#Qacas`C`Y`Y.6`Y.6`r#n#paF#x`h`h`X`h`w.j",
"`M#V.Iaaaa.Q`t#R.d#k#zaNaU.R.Ra0aA.`aHaZ`AaF.6.R#N.3`8#R#K.E#K.o#N.2aJ#``R.UazaOaGaG`F`S`S#7ag`PaF.C`J`Y.n`o``.g.i.z`h`X`h`h#4`r",
"a0aG.Faa`kaO`Z`d`6#b.UaU.R.R.R`M.`aAaAaH#V.F.m.C.ma0.Oau`Y`J`J`Q`TaL.y.F.F.y.FaG.f`F`S`T`F`F`SaO.f`F.0`B.R#p``#G`Q.y`h`h`X.Q#4`U",
"#Q.f`V.m#D`F`a.f#A#b#A.R.RaA`MaA.`aL.`.`aH.y`F.F`I`T.O`Y`J`J`Y.6.6.0.`.MaGaGaG`V`T#Z`FaG`V.MaZ.F.f.m`Y`Y.k#g#I`gaN`h`y`m`y`a#U#B",
".c.f.Q`T#D.mafaf#y.dae`T`s.R.R.`aLaHaL`T.`.F.y`F`haH`J`C`J.6`J`J`J`Y#DaZaG.faG`S`T`F`VaG`VaG`FaZ.M.R#5.G.r``a5.h#x`h.naN.y`w#U#C",
".4`FaSaO.E.EaO`a.k#f`i`U.RaA.`aLaLaHaH#VaH`T.FaGaG.K`J`Y.O`J`J`J`J`J.6`J`Qaa`MaZaG`VaG`VaGaGaGaZ.Maa`B`T#h#na3aN.y.z.n`s.f`o#yar",
".4`x.T.faa.0.m.saf#u#k`1aHaA.`aHaL.F.F.FaG#V`TaL`F.i`Y`J.O.O`J.6`J`J`J`J.O`C`J`T`V.M`FaG.MaG.MaZaG.n.6`7#n.Z.N.e`m.R`k.z`a`o#1.4",
".4#r`a.s.m#D#D.2`a.s#fa8.o.`aLaL.FaH.1.y.yaGaGaHaZ#7.0`Y`J.O.O.O`J`J`Y.O.O`Y`N`V`VaG`VaGaGaG`F#Z`M`Y`T#h#naY`##x`yaUaU`y`w#4#C.4",
".4.4`4`L`A.n.n.i`n`a`raeaj.FaH.F#V.FaG.FaG.FaGaG.yaGaM`J`Y`YaXas`C#T.O`J`J#D`F.faG`VaG.M.MaG#Z`las`Q.X#n`K#F.e`m.y`h`y.Q.X`Uas.4",
".4.4`l.pa.`k.n.naF`L`a#Lae.W#VaH.yaG.yaG.FaG.yaG`FaG.faM`J#5ar.4as.O`J`J`Y.i`VaG.MaGaGaG`F#V`x.4ara#an.w.X.i`s`m`s`m`y`waxaV.4.4",
".4.4.c`R.SaF`J`P.n`4`La2`1aj#F#V.F.yaG.FaGaGaGaGaG.F.F.FaMaP#Tarar#T`Y.O`J`N.FaZaZaZ#VaZ#V`F`M`C`S`z#n#haO`G`h.R.n.e.f.u#Fas.4.4",
".4.4.4aT`e`4.n.n.6.0aC#m`7`1.ga.#VaZ.F.F.F.F`T`T`T`T`T`T`VaO`J.O`Y`Y.q`P.I`VaGaGaGaGaGaG.M#Vau.E#w#n`0`r.G`m.zaN.i`y.paxah.4.4.4",
".4.4.4.4`Ra`.i`J.n`B`k.S#m#6.g..#v#V.F.F`T.F.F.F.FaGaG.faG.f`Q`J`J`J`Y`S`VaG.M`VaG.MaG.MaGaN.m#c#n`0#e`G.e.y.iaN`saf.u#y.4.4.4.4",
".4.4.4.4#ra2.U.6.6.6#q.C.p`e#6.g..a#.y.yaGaGaGaGaGaGaG`FaG`V.E`Y`J`J.i`V.FaZaZaG`XaG.M`XaLa.#M.w#g`O`k`G`h.e`Q.e`hax.rah.4.4.4.4",
".4.4.4.4.4.Y.T.i`B`J#q.8.3`e`e.a#La1.L`F.1aGaG`FaGaGaGaG`F.faZ`J`Y#D`V.faGaG.F#V`F#V#V`Xa2`z#n#g#w.i.G.y`s`kaN.z`w.u#1.4.4.4.4.4",
".4.4.4.4.4.4`4.k.6#q#5`J`Q`n#E`e.a.ga1.W`n#V.1aGaGaGaOaGaGaG`I`Q`JaO.faG.M.f.MaG#V#V.M.aay#nan`O`#.G`y`m.naN`s`Z.u`U.4.4.4.4.4.4",
".4.4.4.4.4.4.c`n`A#5`J.C`T.F`a`e`e.a.ga5`1az.kaG#VaGaGaG`V`V`V.2#DaG.faG`X#V.1.1.M.S#paq#n`K`o.i.G`y`m.naN`s`t`E`D.c.4.4.4.4.4.4",
".4.4.4.4.4.4.4`l.Q.m.h`T`F.M`FaS#m#Y.paBa1aI#8#X#N`VaGaG#V.1.1`X.`aL.1.1`X`V.s#U#M`v#n#g#M#yaN`G`h#x.naN`s.Maxax#C.4.4.4.4.4.4.4",
".4.4.4.4.4.4.4.4`l`I.F`F`V`V`V`Vafa2#m`La`#Xa5aRae.t#e#6az.La#a#a2.b`w.a#w#p`K.w#naq`z`D#z.e.z.y`s.naN`s.f`EaxaV.4.4.4.4.4.4.4.4",
".4.4.4.4.4.4.4.4.4#Q.F.y`V.f`t`t`t`t`Z`L`L`aa#`u.HaI#3aD.vak.Z.vay`0an.w#n#naq`0#M`D.2aU`s`y`y.i.GaN.z`t`Eax##.4.4.4.4.4.4.4.4.4",
".4.4.4.4.4.4.4.4.4.4acaH.F.f`t`t`taZaZaf#W#W`a`t#v#K#.#aa5#H.v`0anan`0`K`z#w.ra#`A`s`s`y.1`saN.naU`y.s.uax#C.4.4.4.4.4.4.4.4.4.4",
".4.4.4.4.4.4.4.4.4.4.4ar.EaLaGaS`t`Q`Q.m`FaS#W#WaSaQ`4`S#d`Ra#a`.Sa`.b`n`I.F.z`s.z.1`y.zaU`kaN`s`y.S.u`D#r.4.4.4.4.4.4.4.4.4.4.4",
".4.4.4.4.4.4.4.4.4.4.4.4asad`s.F`t`V`S.K`Q`T`F`t`Z`Z`ZaS`t.MaG.1.F`yaL`y`y`y.1`h`X`h#x.naN`G.z.f#4.u`3.4.4.4.4.4.4.4.4.4.4.4.4.4",
".4.4.4.4.4.4.4.4.4.4.4.4.4.4`laUaU.yaf`t`Faa.E`M.E`TaH.F.MaG`h`h`X`h`X`h`X`h`h`h`h`h`y.e.z.f`w.u.r`g.4.4.4.4.4.4.4.4.4.4.4.4.4.4",
".4.4.4.4.4.4.4.4.4.4.4.4.4.4.4as.J`kaU.FaSaf`F.E`Q`Q.K`Q.E.K.`.M.M.M`h.M`h`h`X`h.1`y.1.f`w`Eax.Das.4.4.4.4.4.4.4.4.4.4.4.4.4.4.4",
".4.4.4.4.4.4.4.4.4.4.4.4.4.4.4.4.4.4.O.n`k`m.f`t.f.FaH.R.R.E.z.M`h`X`h`X`X`X`y.1`h.s`w`Eaxao.c.4.4.4.4.4.4.4.4.4.4.4.4.4.4.4.4.4",
".4.4.4.4.4.4.4.4.4.4.4.4.4.4.4.4.4.4.4as.q.C.E#x`T`T.F.y`h.y.1`h`X`X`h`h`h.Q.s`w#4ax#`#o.c.4.4.4.4.4.4.4.4.4.4.4.4.4.4.4.4.4.4.4",
".4.4.4.4.4.4.4.4.4.4.4.4.4.4.4.4.4.4.4.4.4.4aX`lahaPaX`l.Y.2.k.s.b.b.S`w#U#4.r#y`g#r.4.4.4.4.4.4.4.4.4.4.4.4.4.4.4.4.4.4.4.4.4.4"
};
