/* XPM */
static char *bitcoin16_xpm[] = {
/* width height num_colors chars_per_pixel */
"    16    16      256            2",
/* colors */
"`` c #ffffff",
"`. c #e4deda",
"`# c #b8a17e",
"`a c #e1c075",
"`b c #e9bd6b",
"`c c #d7a652",
"`d c #d6a753",
"`e c #e3b45e",
"`f c #edc269",
"`g c #d3a85a",
"`h c #d1aa78",
"`i c #fcf7f2",
"`j c #d6cdc6",
"`k c #bfa36d",
"`l c #f2d07e",
"`m c #b38c51",
"`n c #7e603b",
"`o c #836e48",
"`p c #8b784e",
"`q c #857249",
"`r c #a79260",
"`s c #e7d581",
"`t c #f5e28f",
"`u c #d9a74c",
"`v c #faf4e9",
"`w c #e2dbd7",
"`x c #c0a673",
"`y c #e8c477",
"`z c #82603d",
"`A c #796d58",
"`B c #c5b77d",
"`C c #eed986",
"`D c #f9e793",
"`E c #ecce7a",
"`F c #b5975d",
"`G c #9f8e5f",
"`H c #d9c378",
"`I c #eaaf53",
"`J c #dbab41",
"`K c #fcfaf5",
"`L c #c1a989",
"`M c #e4be71",
"`N c #8c6c47",
"`O c #95917e",
"`P c #f9f1ab",
"`Q c #fbe186",
"`R c #f7da8b",
"`S c #f8db8e",
"`T c #fbcd73",
"`U c #ffcc63",
"`V c #e0b86c",
"`W c #b39763",
"`X c #d8ac58",
"`Y c #e9b458",
"`Z c #debc53",
"`0 c #fefefe",
"`1 c #cea765",
"`2 c #ba9455",
"`3 c #8c7a5b",
"`4 c #edf0bf",
"`5 c #fef1a9",
"`6 c #f6e08e",
"`7 c #fbdf8f",
"`8 c #ffd993",
".` c #fdd28d",
".. c #eeb45e",
".# c #f9c969",
".a c #d9be7c",
".b c #b3955c",
".c c #e2ac54",
".d c #dcb351",
".e c #f2e8c5",
".f c #d3a55b",
".g c #9a7a48",
".h c #b9ac70",
".i c #fff9a4",
".j c #f9eaa2",
".k c #f3e39b",
".l c #ebc87c",
".m c #e8b764",
".n c #ecbb6b",
".o c #ebb05a",
".p c #ecb860",
".q c #f9d177",
".r c #a68a5c",
".s c #c9994b",
".t c #e7b560",
".u c #dabd69",
".v c #cda15a",
".w c #9d814f",
".x c #d6c677",
".y c #fffaab",
".z c #f9f3cd",
".A c #c5b893",
".B c #9d8457",
".C c #a08359",
".D c #ab8858",
".E c #d69d4c",
".F c #eeb95d",
".G c #ffeb9f",
".H c #b8a676",
".I c #af8743",
".J c #efb253",
".K c #d8b365",
".L c #ca9f59",
".M c #a48955",
".N c #e2cc7b",
".O c #fff1a2",
".P c #f7e5b7",
".Q c #a79676",
".R c #826c4e",
".S c #897561",
".T c #806d54",
".U c #c58d3f",
".V c #f7cf84",
".W c #ffffc6",
".X c #c0b784",
".Y c #a8803f",
".Z c #eba12f",
".0 c #c8922c",
".1 c #d0a557",
".2 c #9f844e",
".3 c #d8bd6f",
".4 c #ffd978",
".5 c #edc26b",
".6 c #bfa166",
".7 c #b59c70",
".8 c #a6895c",
"#` c #936d3b",
"#. c #ce9341",
"## c #f3cc92",
"#a c #fff3a5",
"#b c #b0a16d",
"#c c #b38c46",
"#d c #e69f2e",
"#e c #bb8822",
"#f c #dda953",
"#g c #a0844e",
"#h c #c2a05c",
"#i c #ffc55d",
"#j c #e9aa49",
"#k c #e8bd6b",
"#l c #f0e49e",
"#m c #ead589",
"#n c #e3b564",
"#o c #e3a652",
"#p c #e59f46",
"#q c #ffcb6b",
"#r c #8e7c54",
"#s c #d2ac59",
"#t c #d3983a",
"#u c #b88e29",
"#v c #dca957",
"#w c #c09e5f",
"#x c #a47c48",
"#y c #edae4d",
"#z c #f3a93d",
"#A c #eab154",
"#B c #fae5a3",
"#C c #ffffcc",
"#D c #f9e199",
"#E c #e4a245",
"#F c #ffbb55",
"#G c #c8a66c",
"#H c #866d40",
"#I c #f1be52",
"#J c #b17f31",
"#K c #d9bd57",
"#L c #dab47a",
"#M c #e7cc7b",
"#N c #ae8e5c",
"#O c #b58348",
"#P c #f4b14b",
"#Q c #f2a63f",
"#R c #eebe6d",
"#S c #f7e7a9",
"#T c #f4c978",
"#U c #ffb341",
"#V c #dba14e",
"#W c #735e41",
"#X c #ccaa53",
"#Y c #e0ab49",
"#Z c #b78b1d",
"#0 c #fcf7de",
"#1 c #f2e6da",
"#2 c #e7c26b",
"#3 c #dfb66a",
"#4 c #a06939",
"#5 c #a27a49",
"#6 c #ca9244",
"#7 c #e2a54a",
"#8 c #eab55a",
"a` c #e19f44",
"a. c #a56f31",
"a# c #6a4c29",
"aa c #be9d4e",
"ab c #f6c65c",
"ac c #a77829",
"ad c #e8cc54",
"ae c #f5e4cd",
"af c #ebaf4a",
"ag c #db963d",
"ah c #be8442",
"ai c #a47d51",
"aj c #906f48",
"ak c #805c31",
"al c #765329",
"am c #926d34",
"an c #dcb456",
"ao c #f3c35a",
"ap c #a77629",
"aq c #d9b525",
"ar c #fcf4e4",
"as c #ebc65f",
"at c #e7ae54",
"au c #e5a94c",
"av c #e4a039",
"aw c #eda530",
"ax c #f2b03b",
"ay c #cc963c",
"az c #a2751a",
"aA c #e0c450",
"aB c #fefefd",
"aC c #f3e7b9",
"aD c #e4c978",
"aE c #dfb76b",
"aF c #cb9230",
"aG c #b9811f",
"aH c #a87b20",
"aI c #d6b955",
"aJ c #000000",
"aK c #000000",
"aL c #000000",
"aM c #000000",
"aN c #000000",
"aO c #000000",
"aP c #000000",
"aQ c #000000",
"aR c #000000",
"aS c #000000",
"aT c #000000",
"aU c #000000",
"aV c #000000",
"aW c #000000",
"aX c #000000",
"aY c #000000",
"aZ c #000000",
"a0 c #000000",
"a1 c #000000",
"a2 c #000000",
"a3 c #000000",
"a4 c #000000",
"a5 c #000000",
"a6 c #000000",
"a7 c #000000",
"a8 c #000000",
/* pixels */
"`````.`#`a`b`c`d`e`f`g`h`i``````",
"```j`k`l`m`n`o`p`q`r`s`t`u`v````",
"`w`x`y`z`A`B`C`D`E`F`G`H`I`J`K``",
"`L`M`N`O`P`Q`R`S`T`U`V`W`X`Y`Z`0",
"`1`2`3`4`5`6`7`8.`...#.a.b.c.d.e",
".f.g.h.i.j.k.l.m.n.o.p.q.r.s.t.u",
".v.w.x.y.z.A.B.C.D.E.F.G.H.I.J.K",
".L.M.N.O.P.Q.R.S.T.U.V.W.X.Y.Z.0",
".1.2.3.4.5.6.7.8#`#.###a#b#c#d#e",
"#f#g#h#i#j#k#l#m#n#o#p#q#r#s#t#u",
"#v#w#x#y#z#A#B#C#D#E#F#G#H#I#J#K",
"#L#M#N#O#P#Q#R#S#T#U#V#W#X#Y#Z#0",
"#1#2#3#4#5#6#7#8a`a.a#aaabacad``",
"``aeafagahaiajakalamanaoapaq````",
"````aras#8atauavawaxayazaA``````",
"``````aBaCaDaEaFaGaHaI#0````````"
};
