/* XPM */
static char *bitcoin32_xpm[] = {
/* width height num_colors chars_per_pixel */
"    32    32      256            2",
/* colors */
"`` c #241e1c",
"`. c #a4925c",
"`# c #e4ca5c",
"`a c #d4922c",
"`b c #845e2c",
"`c c #dcae4c",
"`d c #e4d1af",
"`e c #b4702c",
"`f c #d4b168",
"`g c #f4e68c",
"`h c #dcca9c",
"`i c #847a5c",
"`j c #4c4e50",
"`k c #fceeaf",
"`l c #ecbe58",
"`m c #ecb964",
"`n c #eca02c",
"`o c #c4ae5c",
"`p c #ecdb8d",
"`q c #5c6254",
"`r c #f4b040",
"`s c #bc923c",
"`t c #9c7e44",
"`u c #9f622c",
"`v c #b4862c",
"`w c #fccd59",
"`x c #e4a230",
"`y c #dcbe70",
"`z c #f4eae0",
"`A c #ac8838",
"`B c #4c3927",
"`C c #ece0ac",
"`D c #6c4a24",
"`E c #c4a250",
"`F c #cc8634",
"`G c #e4b658",
"`H c #f4cf87",
"`I c #ecc46b",
"`J c #f4d67c",
"`K c #fcf4a2",
"`L c #fcdd8b",
"`M c #eca645",
"`N c #846e4c",
"`O c #54564c",
"`P c #fcf6c4",
"`Q c #ece6a4",
"`R c #f4b551",
"`S c #9c7a50",
"`T c #b48d4c",
"`U c #d4b870",
"`V c #bc945c",
"`W c #a07644",
"`X c #f4cd76",
"`Y c #d4a354",
"`Z c #f4e0b0",
"`0 c #ecaf4b",
"`1 c #7c643c",
"`2 c #fcc668",
"`3 c #d49644",
"`4 c #fce89a",
"`5 c #443624",
"`6 c #b4a25c",
"`7 c #f4eacc",
"`8 c #eca63c",
".` c #a4701f",
".. c #b48c38",
".# c #e4c08c",
".a c #ecc575",
".b c #fcbf50",
".c c #ecda9c",
".d c #4c423c",
".e c #f4d688",
".f c #947142",
".g c #a49674",
".h c #5c4c38",
".i c #cc9541",
".j c #fcf7e7",
".k c #9c885c",
".l c #f4d27c",
".m c #e4a54c",
".n c #40281c",
".o c #eccd69",
".p c #b47d29",
".q c #ecd486",
".r c #f4e292",
".s c #ac7b37",
".t c #ac7624",
".u c #dcae54",
".v c #e4d8c0",
".w c #947c5f",
".x c #bfb28f",
".y c #f9b944",
".z c #cca058",
".A c #fcdaa4",
".B c #847257",
".C c #e4b96a",
".D c #d49b3c",
".E c #f4dc8d",
".F c #6c6b5e",
".G c #e4c671",
".H c #e4e2cc",
".I c #645c4e",
".J c #f8ba58",
".K c #f4e5ca",
".L c #fceea2",
".M c #b47d39",
".N c #8c6937",
".O c #e4b264",
".P c #f4c65c",
".Q c #ecbe6b",
".R c #fcb035",
".S c #c48634",
".T c #5c361c",
".U c #ecb758",
".V c #fcd187",
".W c #f4c369",
".X c #fce291",
".Y c #ecaa4b",
".Z c #9c8260",
".0 c #fccc6e",
".1 c #d4aa54",
".2 c #746e54",
".3 c #fcf2c8",
".4 c #fcaa3c",
".5 c #9f713c",
".6 c #fcfefc",
".7 c #ac8654",
".8 c #ecd27c",
"#` c #b49257",
"#. c #6c5644",
"## c #342e2c",
"#a c #444644",
"#b c #5c4529",
"#c c #7c5e3c",
"#d c #ecce84",
"#e c #ccb470",
"#f c #dc8e34",
"#g c #e49e44",
"#h c #b49a64",
"#i c #3c2f27",
"#j c #c48a2c",
"#k c #34261e",
"#l c #fcf7cf",
"#m c #e2cd7c",
"#n c #876249",
"#o c #c48e4c",
"#p c #f4dab4",
"#q c #605244",
"#r c #6c6659",
"#s c #e49c3c",
"#t c #ecd6a4",
"#u c #f4f2f4",
"#v c #7c6a54",
"#w c #443e3c",
"#x c #ac823c",
"#y c #543e2c",
"#z c #cc8e3c",
"#A c #f8de7c",
"#B c #5c5e50",
"#C c #c49a5c",
"#D c #d49e4c",
"#E c #dcc67c",
"#F c #a49a74",
"#G c #9c8e5c",
"#H c #ece6dc",
"#I c #705e50",
"#J c #c4ac74",
"#K c #b9863f",
"#L c #bf9e60",
"#M c #f4e2a4",
"#N c #8c7654",
"#O c #fcf2b7",
"#P c #a46a2c",
"#Q c #fcd264",
"#R c #fcfeb4",
"#S c #9c765c",
"#T c #fcc654",
"#U c #cc9a3c",
"#V c #fcfee4",
"#W c #94825c",
"#X c #643e1c",
"#Y c #9c763c",
"#Z c #b49a5c",
"#0 c #e4a343",
"#1 c #ac8649",
"#2 c #ecdec1",
"#3 c #9c7c60",
"#4 c #ecb056",
"#5 c #b49e74",
"#6 c #eccd79",
"#7 c #ac7238",
"#8 c #eccc9c",
"a` c #c48d3f",
"a. c #dc963c",
"a# c #8c623c",
"aa c #dcb064",
"ab c #544f46",
"ac c #f4c158",
"ad c #f4a12c",
"ae c #c49449",
"af c #e4bf6c",
"ag c #fcd772",
"ah c #8c7042",
"ai c #f4e79a",
"aj c #bc8e5c",
"ak c #dcb770",
"al c #dca551",
"am c #fce0b0",
"an c #fcedc8",
"ao c #f4a833",
"ap c #ac946c",
"aq c #644c2c",
"ar c #a48a5c",
"as c #ecdab4",
"at c #7c705c",
"au c #443020",
"av c #fcfa9c",
"aw c #e4aa4e",
"ax c #fce29c",
"ay c #ac8e5c",
"az c #fce687",
"aA c #54422c",
"aB c #fcd689",
"aC c #fcd26f",
"aD c #f4be64",
"aE c #f4aa44",
"aF c #a48254",
"aG c #dc9e48",
"aH c #e4c681",
"aI c #ac9458",
"aJ c #e4af4b",
"aK c #e4cea1",
"aL c #8c7b59",
"aM c #a47c42",
"aN c #bc8430",
"aO c #5c5a48",
"aP c #fcb44c",
"aQ c #f4c577",
"aR c #bc7e24",
"aS c #e4b059",
"aT c #8c705c",
"aU c #dc9b39",
"aV c #ece0d0",
"aW c #bc7c34",
"aX c #644224",
"aY c #ccae6c",
"aZ c #e4d2bc",
"a0 c #d4b274",
"a1 c #fceebc",
"a2 c #f4ba64",
"a3 c #eca03c",
"a4 c #646654",
"a5 c #fccd64",
"a6 c #f4eeec",
"a7 c #d48a34",
"a8 c #f4ce94",
/* pixels */
".6.6.6.6.6.6.6.6.6.6aV`faea`#D.#aK.CaG.DaaaV.6.6.6.6.6.6.6.6.6.6",
".6.6.6.6.6.6.6.6`d`T#K#Caa.Cak.C.G.aafaS`3aW.SaZ.6.6.6.6.6.6.6.6",
".6.6.6.6.6.6.j#`aMa0`p`L#6.W.U.y.WaD`I`m.a#6aa#K.i.6.6.6.6.6.6.6",
".6.6.6.6.6as.f#L.E`4.laS#z.M.5.f.5.s.i.U.P`J`p`J`y.i.K.6.6.6.6.6",
".6.6.6.6`h.Nak`4.eal#7`D`B#wab#qaO`O#a`O#F#6#A.r`K`paG`Z.6.6.6.6",
".6.6.6`d.faH.Laf.M#X##.I#F#e#E`p`p.8`U`.#B#B#Laz`K#d.m.man.6.6.6",
".6.6`7.fak.L.C`u.n`j.x.c.q.8.o.r`4`g.0aC.P#h#I#G`J`l#s#saJ.6.6.6",
".6.6`T#L`K.Q`u#k.F`C#M#m#m.E.E.lai`X.W`Xa2a5af.B.ka5awaSaw.o.6.6",
".6aK.5.X.eaW#k#ra1`k`p#6#6.8aBaB.q.P`2`maDa2`X.a#NaI`I.U.CaJ.3.6",
".6#1ak`4aG.T`j`C#l#l.E#6.E`4ax.V.V.A`HaDaD.Qaf`L#daT`E`0aS#4`#.6",
"#2#7`4`X#P##.x`K`kan.r`L`4ai`p.eaBanamaD#4`8.m.q`K#J#v.u#4aSaJ.6",
"a0.z`L.uaX#r.q.Lai`4aiai.r.E#da8`Ia2aQ.aa2#4aw.l.a#6aTaF.UaSaJ.q",
"aeak`Ia`#y`.#A`4.r`4ai`4.Lax`2`2.J`RaPa2#4#4.Q#daS`m#`#Iaw.U.UaH",
"#z.a`m#7ab`oaz#M`4aia1`C.x#L#L.k`T#CaF.za2.Y.m`Hai`X.z#qae.y`0aH",
"`Yaf.U#3a4afaz`4.r.3.6.HaL#N`i#r.w.Z.w`N`R#4aw.E.3`P#d#q#1`r`naa",
".#`GaS`S.F.oaB.raian.6.K.Z.I#War.Z.wataTaEaw.aaz`k.3.q.haM.yad#z",
"#p.uaw.f.2`Xag.lai.V.V`X#h`i#C#Lap#CaTae`M.ma8#Oai`4.EaA`t.yad#j",
"a8`G#4.5a4.Gag.W#M`X.0.Ca4#v#3aF#v#v.d`1aEaw.K#V`k`4#m`B`T.yaoaN",
"`m.a`m#x`q`faC`2.Q`I#6afapap#J#5#3.fahaM`M#4a8#p#6`4`U#i`f.R`n`v",
"`0`G`m#z#BaIa5.Wa2.U`0awaD#M`4`4aB#4a3`MaSaw#gaw.m`4arab`X.R`x`s",
".QaG`IaG`1at.W.b#4`R#4`M.U`4`k`4`4.E`X.Q`M#g#ga3#4`LaAaL`wa5#U#e",
".K#z#6`I.M.I.za2`r.Y`M`M.U#Mai`kai`4ai.a#g#g#s.Y`L#L#k.1.bac.p#H",
".6.iak.Eal`b.B`0`0`M.m.m#0`G#M.j#l`k#M.m#g`Ma3am`Zau#cac.y`x`A.6",
".6#8#o`g`J.S#c.7.Y`0.Y`0.YawaS`Z#Oai.C.m`Ma3`R.V#.au`G.Pa5.p.v.6",
".6.6.z.Cav#m#7#n.7aw`0.Y.m#0#s#6`4af.m`M`M.4awaq#k`E.P#Q.D...6.6",
".6.6`z`Yai#Ral`u#n#S.i#0aE.Ya3.W.e`8.4aPaEaWau#k`E`wa5`G.`#u.6.6",
".6.6.6#p.C.a.Ya7`e#n#v.w#K.ia.aG`ca.#z#P#b``#b.1`waC`l.`.v.6.6.6",
".6.6.6.6#taJ#g#sa.`F`e.fat#r.IaX#y#y#i#i.h`Aac#Qag`0.``d.6.6.6.6",
".6.6.6.6.6`Z`m#s#g`m.m#f#oaj`S.N`b.N.s.i`r`waga5.D.`.v.6.6.6.6.6",
".6.6.6.6.6.6.jaf`mawaS#4#4`R`R.4.4.R.R.R.R.baJ.p..a6.6.6.6.6.6.6",
".6.6.6.6.6.6.6.6`7.oafaw#4`mac`raoaoao`x`a.t#x.H.6.6.6.6.6.6.6.6",
".6.6.6.6.6.6.6.6.6.6.j#m#E#8ak.i.S.p.t`AaY`z.6.6.6.6.6.6.6.6.6.6"
};
